<?xml version="1.0" encoding="utf-8"?>
<svg version="1.1" width="63" height="71" id="LogoImg" xmlns="http://www.w3.org/2000/svg" xmlns:xlink="http://www.w3.org/1999/xlink" x="0px" y="0px"
	 viewBox="0 0 66 74.5" style="enable-background:new 0 0 66 74.5;" xml:space="preserve">
<style type="text/css">
	.st0{fill:none;stroke:#FFFFFF;stroke-width:2;stroke-miterlimit:10;}
	.st1{fill:#FECA17;}
	.st2{fill:none;stroke:#FFFFFF;stroke-miterlimit:10;}
	.st3{fill:#FFFFFF;}
</style>
<path class="st0" d="M34.59,72.9h-24c-4.97,0-9-4.03-9-9l0-32.31c0-16.57,13.43-30,30-30h24c4.97,0,9,4.03,9,9l0,32.31
	C64.59,59.46,51.16,72.9,34.59,72.9z"/>
<g>
	<g id="XMLID_00000092447324862501919580000003201914226566427783_">
		<g>
			<polygon class="st1" points="40.62,4.46 62.19,70.5 54.9,70.5 39.04,21.76 3.51,70.24 35.86,10.34 34.28,4.46 			"/>
		</g>
		<g>
			<polygon class="st2" points="40.62,4.46 34.28,4.46 35.86,10.34 3.51,70.24 39.04,21.76 54.9,70.5 62.19,70.5 			"/>
		</g>
	</g>
</g>
<g>
	<path class="st3" d="M14.38,46.35c0.41,5.76,9.91,7.91,21.1,5.33c11.19-2.58,27.67-12.95,28.31-14.12c0,0-18.44,14.11-29.63,16.69
		c-11.19,2.58-22.57,0.29-23.62-5.39c-0.84-4.55,6.72-14.02,13.12-17.54C23.66,31.32,14.06,41.88,14.38,46.35z"/>
</g></svg>