<?xml version="1.0" encoding="utf-8"?>
<!-- Generator: Adobe Illustrator 26.3.1, SVG Export Plug-In . SVG Version: 6.00 Build 0)  -->
<svg version="1.1" id="Слой_1" xmlns="http://www.w3.org/2000/svg" xmlns:xlink="http://www.w3.org/1999/xlink" x="0px" y="0px"
	 viewBox="0 0 184.85 156.77" enable-background="new 0 0 184.85 156.77" xml:space="preserve">
<path fill-rule="evenodd" clip-rule="evenodd" fill="#008BD2" d="M20.72,126.21h9.32v-6.31H4.7v6.31h9.32v27.66h6.7V126.21
	L20.72,126.21z M72.43,26.03l12.27-13.2v88.95L49.74,62.67l14.97-15.95l-0.25,15.62l7.55,8.45L72.43,26.03L72.43,26.03z M86.95,10.9
	l5.98-6.51l5.72,6.51l0.19,92.82l-5.77,7.95l-5.93-7.95L86.95,10.9L86.95,10.9z M113.35,26.03l-12.27-13.2v88.95l34.97-39.12
	l-14.97-15.95l0.25,15.62l-7.55,8.45L113.35,26.03L113.35,26.03z M43.09,129.27c-7.57,0-12.23,5.58-12.23,12.47
	c0,4.04,1.62,7.51,4.39,9.75c4.26,3.45,13.28,3.46,17.95,0.99l0.24-5.77c-4.5,2.19-14.57,4.04-16.21-2.89l16.63,0.13
	c0.68-2.09,0.91-5.89-0.1-8.12C51.91,131.74,48.28,129.27,43.09,129.27L43.09,129.27z M48.57,139.34l-11.09-0.05
	C37.75,132.78,48.57,133.63,48.57,139.34L48.57,139.34z M72.31,146.4l5.92,7.47h7.13l-9.51-12.38l8.93-11.89h-7.09l-5.24,6.7
	l-5.39-6.7h-7.13l8.93,11.65l-9.46,12.62h7.13L72.31,146.4L72.31,146.4z M104.87,132.18l8.4,21.69h7.43l-13.78-33.97h-3.93
	L89,153.87h7.43L104.87,132.18L104.87,132.18z M150.16,153.87v-24.27h-5.54l-0.01,3.1c-5.9-7.49-19.88-2.57-19.88,9.04
	c0,11.77,14.37,16.25,19.88,9.26l0,2.88H150.16L150.16,153.87z M137.15,148.19c-3.25,0-6.25-2.47-6.25-6.45c0-3.98,3-6.5,6.25-6.5
	c3.2,0,6.25,2.52,6.25,6.5C143.4,145.72,140.35,148.19,137.15,148.19L137.15,148.19z M174.24,119.9c0,1.55-0.83,2.04-3.98,2.04
	c-9.03,0-14.07,4.9-14.07,13.44v5.82c0,8.01,5.44,13.05,12.42,13.05c7.62,0,12.47-5.58,12.47-12.52c0-6.5-4.42-11.36-11.31-11.36
	c-3.2,0-6.07,1.55-7.43,3.88v-1.07c0-3.93,2.86-6.07,7.43-6.07h1.55c6.89,0,9.08-2.62,9.08-7.23H174.24L174.24,119.9z
	 M168.61,136.06c3.2,0,6.26,2.52,6.26,6.11c0,3.64-2.96,6.11-6.26,6.11c-3.35,0-6.26-2.48-6.26-6.11
	C162.35,138.58,165.36,136.06,168.61,136.06z"/>
</svg>
